<svg width="24" height="24" viewBox="0 0 24 24" fill="none" xmlns="http://www.w3.org/2000/svg">
<path d="M12 23.25C18.2132 23.25 23.25 18.2132 23.25 12C23.25 5.7868 18.2132 0.75 12 0.75C5.7868 0.75 0.75 5.7868 0.75 12C0.75 18.2132 5.7868 23.25 12 23.25Z" stroke="#C1A05C" stroke-width="1.5"/>
<path d="M12.0003 18.135C12.6967 18.135 13.2613 17.5705 13.2613 16.874C13.2613 16.1776 12.6967 15.613 12.0003 15.613C11.3038 15.613 10.7393 16.1776 10.7393 16.874C10.7393 17.5705 11.3038 18.135 12.0003 18.135Z" fill="#C1A05C"/>
<path d="M12.0034 5.86499C12.2686 5.86499 12.523 5.97035 12.7106 6.15788C12.8981 6.34542 13.0034 6.59977 13.0034 6.86499V13.214C13.0119 13.3475 12.9919 13.4813 12.9447 13.6065C12.8975 13.7317 12.8241 13.8454 12.7295 13.94C12.6349 14.0346 12.5212 14.108 12.396 14.1552C12.2708 14.2025 12.1369 14.2225 12.0034 14.214C11.7382 14.214 11.4839 14.1086 11.2964 13.9211C11.1089 13.7336 11.0034 13.4792 11.0034 13.214V6.86499C11.0095 6.60169 11.1169 6.35086 11.3031 6.16463C11.4893 5.9784 11.7401 5.87109 12.0034 5.86499Z" fill="#C1A05C"/>
</svg>
